<svg aria-hidden="true" width="120" height="126" viewBox="0 0 120 126" fill="none" xmlns="http://www.w3.org/2000/svg">
  <path d="M109.21 79.4814C108.31 78.1114 106.79 77.2914 105.14 77.2914H84.55L88.02 68.6414H91.18C92.35 68.6414 93.3 67.6914 93.3 66.5214C93.3 65.3514 92.35 64.4014 91.18 64.4014H87.97C87.97 64.4014 87.99 64.3614 88 64.3414C88.72 62.2814 88.26 60.1114 86.76 58.5214C85.27 56.9314 83.12 56.3414 81.03 56.9414L77.01 58.0814L69.03 55.6114C66.2 54.7414 63.11 54.8014 60.31 55.7814L53.2 58.2914L45.42 55.7714C42.39 54.7914 39.08 54.8814 36.11 56.0414L29.15 58.7514L21.09 56.6014C19.07 56.0614 16.98 56.6314 15.52 58.1314C14.06 59.6314 13.53 61.7214 14.11 63.7314L14.28 64.3114C14.28 64.3114 14.32 64.3714 14.33 64.4114H12.12C10.95 64.4114 10 65.3614 10 66.5314C10 67.7014 10.95 68.6514 12.12 68.6514H15.12L31.6 109.661H18.52C18.11 109.661 17.78 109.991 17.78 110.401C17.78 110.811 18.11 111.141 18.52 111.141H31.56C31.49 111.351 31.44 111.581 31.44 111.821C31.44 112.961 32.37 113.891 33.51 113.891H69.79C70.93 113.891 71.86 112.961 71.86 111.821C71.86 111.581 71.81 111.361 71.74 111.141H84.78C85.19 111.141 85.52 110.811 85.52 110.401C85.52 109.991 85.19 109.661 84.78 109.661H71.54L75.55 99.6914C75.64 99.7314 75.74 99.7614 75.85 99.7614H75.86C75.86 99.7614 79.71 99.6914 82.58 99.7214H82.59C83.19 99.7214 83.74 99.7314 84.22 99.7514C84.54 99.7614 84.87 99.7714 85.19 99.7714C96.01 99.7714 105.25 93.9914 109.45 84.5114L109.6 84.1714C110.27 82.6414 110.12 80.8914 109.21 79.5014V79.4814ZM82.03 98.2214C79.69 98.2114 76.98 98.2514 76.12 98.2614L83.95 78.7614H86.03C87.85 80.5214 90.32 81.5414 92.86 81.5414H102.33C103.08 81.5414 103.77 81.9114 104.18 82.5414C104.59 83.1714 104.66 83.9214 104.36 84.6114L104.24 84.8814C101.2 91.7514 93.21 94.5914 87.3 94.9414C85.68 95.0314 84.29 95.5614 83.26 96.4714C82.66 97.0014 82.25 97.5914 82.02 98.2214H82.03Z" fill="white"></path>
  <path d="M109.21 79.4814C108.31 78.1114 106.79 77.2914 105.14 77.2914H84.55L88.02 68.6414H91.18C92.35 68.6414 93.3 67.6914 93.3 66.5214C93.3 65.3514 92.35 64.4014 91.18 64.4014H87.97C87.97 64.4014 87.99 64.3614 88 64.3414C88.72 62.2814 88.26 60.1114 86.76 58.5214C85.27 56.9314 83.12 56.3414 81.03 56.9414L77.01 58.0814L69.03 55.6114C66.2 54.7414 63.11 54.8014 60.31 55.7814L53.2 58.2914L45.42 55.7714C42.39 54.7914 39.08 54.8814 36.11 56.0414L29.15 58.7514L21.09 56.6014C19.07 56.0614 16.98 56.6314 15.52 58.1314C14.06 59.6314 13.53 61.7214 14.11 63.7314L14.28 64.3114C14.28 64.3114 14.32 64.3714 14.33 64.4114H12.12C10.95 64.4114 10 65.3614 10 66.5314C10 67.7014 10.95 68.6514 12.12 68.6514H15.12L31.6 109.661H18.52C18.11 109.661 17.78 109.991 17.78 110.401C17.78 110.811 18.11 111.141 18.52 111.141H31.56C31.49 111.351 31.44 111.581 31.44 111.821C31.44 112.961 32.37 113.891 33.51 113.891H69.79C70.93 113.891 71.86 112.961 71.86 111.821C71.86 111.581 71.81 111.361 71.74 111.141H84.78C85.19 111.141 85.52 110.811 85.52 110.401C85.52 109.991 85.19 109.661 84.78 109.661H71.54L75.55 99.6914C75.64 99.7314 75.74 99.7614 75.85 99.7614H75.86C75.86 99.7614 79.71 99.6914 82.58 99.7214H82.59C83.19 99.7214 83.74 99.7314 84.22 99.7514C84.54 99.7614 84.87 99.7714 85.19 99.7714C96.01 99.7714 105.25 93.9914 109.45 84.5114L109.6 84.1714C110.27 82.6414 110.12 80.8914 109.21 79.5014V79.4814ZM16.59 59.1514C17.68 58.0414 19.22 57.6214 20.72 58.0214L29.01 60.2314C29.16 60.2714 29.32 60.2614 29.47 60.2014L36.65 57.4114C39.3 56.3814 42.26 56.2914 44.96 57.1714L52.98 59.7714C53.13 59.8214 53.3 59.8214 53.45 59.7714L60.8 57.1814C63.29 56.3014 66.06 56.2514 68.59 57.0314L76.78 59.5614C76.92 59.6014 77.06 59.6014 77.2 59.5614L81.43 58.3614C82.99 57.9214 84.58 58.3614 85.68 59.5414C86.79 60.7214 87.13 62.3314 86.6 63.8614C86.53 64.0514 86.55 64.2414 86.63 64.4114H15.67C15.74 64.2514 15.77 64.0814 15.71 63.9014L15.54 63.3214C15.11 61.8314 15.5 60.2714 16.58 59.1614L16.59 59.1514ZM12.13 67.1614C11.78 67.1614 11.49 66.8714 11.49 66.5214C11.49 66.1714 11.78 65.8814 12.13 65.8814H91.17C91.52 65.8814 91.81 66.1714 91.81 66.5214C91.81 66.8714 91.52 67.1614 91.17 67.1614H12.13V67.1614ZM69.8 112.391H33.52C33.19 112.391 32.93 112.131 32.93 111.801C32.93 111.471 33.19 111.211 33.52 111.211H69.8C70.13 111.211 70.39 111.471 70.39 111.801C70.39 112.131 70.13 112.391 69.8 112.391ZM69.95 109.641H33.2L30.42 102.721H50.34C50.75 102.721 51.08 102.391 51.08 101.981C51.08 101.571 50.75 101.241 50.34 101.241H29.82L25.79 91.2014H59.45C59.86 91.2014 60.19 90.8714 60.19 90.4614C60.19 90.0514 59.86 89.7214 59.45 89.7214H25.37C25.32 89.7214 25.27 89.7414 25.22 89.7514L21.61 80.7614H67.72C68.13 80.7614 68.46 80.4314 68.46 80.0214C68.46 79.6114 68.13 79.2814 67.72 79.2814H21.02L16.74 68.6214H86.44L69.96 109.631L69.95 109.641ZM82.03 98.2114C79.69 98.2014 76.98 98.2414 76.12 98.2514L83.95 78.7514H86.03C87.85 80.5114 90.32 81.5314 92.86 81.5314H102.33C103.08 81.5314 103.77 81.9014 104.18 82.5314C104.59 83.1614 104.66 83.9114 104.36 84.6014L104.24 84.8714C101.2 91.7414 93.21 94.5814 87.3 94.9314C85.68 95.0214 84.29 95.5514 83.26 96.4614C82.66 96.9914 82.25 97.5814 82.02 98.2114H82.03ZM108.22 83.5914L108.1 83.8714C104.14 92.8014 95.42 98.2614 85.19 98.2614C84.89 98.2614 84.58 98.2614 84.27 98.2514C84.08 98.2514 83.88 98.2414 83.67 98.2314C83.82 98.0014 84.01 97.7814 84.25 97.5614C85.22 96.7014 86.49 96.4514 87.39 96.4014C93.72 96.0314 102.29 92.9514 105.62 85.4314L105.73 85.1914C106.22 84.0514 106.11 82.7614 105.43 81.7214C104.75 80.6814 103.59 80.0514 102.34 80.0514H92.87C91.29 80.0514 89.74 79.5814 88.42 78.7514H105.14C106.31 78.7514 107.34 79.3114 107.98 80.2814C108.62 81.2514 108.72 82.4714 108.23 83.5914H108.22Z" fill="black"></path>
  </svg>